<svg width="50" height="50" viewBox="0 0 50 50" fill="none" xmlns="http://www.w3.org/2000/svg">
<path d="M5.55556 0C2.48611 0 0 2.48611 0 5.55556V44.4444C0 47.5139 2.48611 50 5.55556 50H44.4444C47.5139 50 50 47.5139 50 44.4444V5.55556C50 2.48611 47.5139 0 44.4444 0H5.55556ZM5.55556 5.55556H44.4444V44.4444H5.55556V5.55556ZM13.2758 9.21224C10.8953 9.21224 9.46723 10.6433 9.46723 12.5488C9.46723 14.4544 10.8954 15.88 13.0371 15.88C15.4177 15.88 16.8457 14.4544 16.8457 12.5488C16.8457 10.6433 15.4175 9.21224 13.2758 9.21224ZM9.65712 19.4444V38.8889H16.6667V19.4444H9.65712ZM22.4501 19.4444V38.8889H29.4596V28.2606C29.4596 25.0967 31.717 24.6419 32.3947 24.6419C33.0725 24.6419 34.885 25.3217 34.885 28.2606V38.8889H41.6667V28.2606C41.6667 22.1579 38.9548 19.4444 35.5631 19.4444C32.1715 19.4444 30.3624 20.5738 29.4596 22.1571V19.4444H22.4501Z" fill="#021718"/>
</svg>
